<?xml version="1.0" encoding="UTF-8" standalone="no"?>
<!-- Created with Inkscape (http://www.inkscape.org/) -->

<svg
   width="5000"
   height="5000"
   viewBox="0 0 5000 4999.9999"
   version="1.1"
   id="svg1"
   xml:space="preserve"
   xmlns="http://www.w3.org/2000/svg"
   xmlns:svg="http://www.w3.org/2000/svg"><defs
     id="defs1" /><g
     id="layer2"
     transform="translate(-5010)"><path
       id="text2-5"
       style="font-size:735.635px;line-height:1;font-family:'Times New Roman';-inkscape-font-specification:'Times New Roman, ';text-decoration-color:#000000;letter-spacing:0.860694px;display:inline;fill:#575757;fill-opacity:1;stroke:none;stroke-width:5.15847;stroke-miterlimit:4.5;stroke-dasharray:none"
       d="m 9366.8364,286.72031 c -80.6508,0 -170.7928,20.703 -265.0639,68.8235 -182.127,92.9651 -339.4054,196.1662 -693.591,727.05329 -171.5777,257.1751 -336.1927,538.4716 -466.536,771.0957 -171.2857,-0.2059 -383.8679,-6.9926 -489.1071,-10.4463 l -4.1008,98.1372 c 267.0518,14.0198 316.3469,24.5303 320.455,133.1835 4.1087,87.6238 4.111,171.7473 4.111,389.0538 v 911.2802 c 0,269.8806 -4.1065,385.5522 -12.3232,462.6622 -8.2167,84.1179 -57.5241,108.6442 -308.142,115.6547 l -4.1008,98.1472 c 123.255,-7.0097 336.894,-10.5159 493.0163,-10.5159 168.4481,0 382.0878,7.011 521.7756,10.5159 v -98.1472 c -238.2921,-10.5142 -291.7025,-28.0324 -299.9192,-119.1603 -4.1081,-108.6542 -12.3237,-231.3279 -12.3237,-469.6632 v -918.3018 c 0,-220.8116 8.2156,-332.9657 12.3237,-396.0548 8.2167,-80.6136 53.4111,-101.6439 299.9192,-108.6543 v -98.1372 c -118.8685,0 -300.5024,8.2442 -461.9701,9.8924 28.3742,-43.7908 54.9631,-85.2431 76.9844,-120.4504 216.7546,-346.553 420.4015,-698.9261 692.613,-1007.85652 65.8121,-77.73023 297.082,-334.07417 492.5237,-296.19427 212.1186,41.1115 -101.0954,327.57767 130.7839,389.80919 117.6323,31.5693 307.6606,-70.44576 315.5682,-239.79329 7.3334,-157.0609 -136.7894,-291.9861 -342.8962,-291.9333 z M 7138.3307,1059.1965 c -86.2782,14.0193 -287.5976,21.0332 -529.9977,21.0332 h -632.7089 c -193.0982,0 -443.7111,-10.5166 -562.8567,-10.5166 v 94.6317 l 193.0971,14.022 c 90.3864,3.5056 119.1479,24.5326 123.2565,87.6206 4.1087,94.6338 8.2128,269.8804 8.2128,518.7312 v 750.0624 c 0,206.791 -4.107,368.0154 -12.3237,501.203 -8.2172,91.1285 -32.8695,122.6771 -106.822,126.182 l -230.0686,21.0239 -4.1108,94.6321 c 131.4715,0 402.633,-10.507 587.5146,-10.507 H 6464.54 c 202.2529,0 354.1679,1.6301 474.7784,3.9886 -213.6181,346.645 -419.0037,696.1077 -690.1753,1003.857 -65.8115,77.7321 -297.0808,334.0844 -492.5232,296.2056 -212.1191,-41.1116 101.096,-327.5789 -130.7838,-389.8094 -117.6318,-31.5694 -307.6601,70.436 -315.5683,239.7829 -10.2033,218.519 272.7762,394.2035 607.9602,223.1103 182.1274,-92.9663 339.4053,-196.1556 693.591,-727.0438 140.8072,-211.0526 278.3563,-440.4458 395.2441,-644.5613 99.4496,2.4749 176.1696,5.4281 229.8769,8.4826 20.5426,-84.1195 94.4912,-525.7383 98.5998,-606.3522 l -2.5196,-0.2729 c 0.1781,-0.3563 3.8997,-7.4748 3.8997,-7.4748 0,0 -4.7941,7.152 -4.9374,7.3641 l -95.0425,-10.1342 c -41.0845,129.682 -106.8293,294.4188 -193.1077,378.5371 -90.387,98.1382 -193.0925,119.1709 -546.4228,119.1709 -341.003,0 -361.5502,-17.5315 -365.6582,-87.6305 -8.2173,-119.1681 -16.435,-336.4774 -16.435,-532.7545 v -343.4794 c 41.0846,-7.0106 147.9034,-7.0117 221.8558,-7.0117 349.2205,0 386.2063,70.1017 419.0749,325.9624 h 102.7105 c -16.4333,-210.297 -12.3297,-490.6909 8.2122,-718.5117 h -102.71 c -28.7598,224.3165 -86.2839,280.3899 -427.2876,280.3899 -53.4106,0 -180.7712,0 -221.8558,-3.5059 v -385.5382 c 0,-189.2666 8.2151,-343.4895 12.3237,-445.1335 4.1086,-42.0586 16.4373,-56.0795 65.7395,-56.0795 H 6464.54 c 365.6556,0 419.063,35.0486 476.5818,154.2167 41.0851,91.1288 65.7406,199.7867 82.1748,283.9055 l 106.822,-7.0116 c -8.2173,-164.7323 -4.1137,-469.6609 8.2121,-560.7875 z" /></g></svg>
