<?xml version="1.0" encoding="UTF-8" standalone="no"?>
<!-- Created with Inkscape (http://www.inkscape.org/) -->

<svg
   width="5000"
   height="5000"
   viewBox="0 0 5000 5000"
   version="1.1"
   id="svg1"
   inkscape:version="1.3 (0e150ed, 2023-07-21)"
   sodipodi:docname="logo.svg"
   xml:space="preserve"
   inkscape:export-filename="favicon.svg"
   inkscape:export-xdpi="9.6000004"
   inkscape:export-ydpi="9.6000004"
   xmlns:inkscape="http://www.inkscape.org/namespaces/inkscape"
   xmlns:sodipodi="http://sodipodi.sourceforge.net/DTD/sodipodi-0.dtd"
   xmlns="http://www.w3.org/2000/svg"
   xmlns:svg="http://www.w3.org/2000/svg"><sodipodi:namedview
     id="namedview1"
     pagecolor="#ffffff"
     bordercolor="#000000"
     borderopacity="0.25"
     inkscape:showpageshadow="2"
     inkscape:pageopacity="0.0"
     inkscape:pagecheckerboard="0"
     inkscape:deskcolor="#d1d1d1"
     inkscape:document-units="px"
     inkscape:zoom="0.052197279"
     inkscape:cx="16447.217"
     inkscape:cy="5766.5841"
     inkscape:window-width="1728"
     inkscape:window-height="1051"
     inkscape:window-x="0"
     inkscape:window-y="38"
     inkscape:window-maximized="0"
     inkscape:current-layer="layer2"><inkscape:page
       x="0"
       y="0"
       width="5000"
       height="5000"
       id="page5"
       margin="0"
       bleed="0" /></sodipodi:namedview><defs
     id="defs1" /><g
     inkscape:label="origin"
     inkscape:groupmode="layer"
     id="layer1"
     transform="translate(-20040)"><path
       id="rect2-9"
       style="fill:#7d9a9b;stroke-miterlimit:4.5"
       d="m 20040,0 h 5000 v 5000 h -5000 z"
       inkscape:label="background" /></g><g
     inkscape:groupmode="layer"
     id="layer2"
     inkscape:label="black"
     transform="translate(-20040)"><path
       id="text2-5-5-3"
       style="font-size:735.635px;line-height:1;font-family:'Times New Roman';-inkscape-font-specification:'Times New Roman, ';text-decoration-color:#000000;letter-spacing:0.860694px;display:inline;fill:#ffffff;fill-opacity:1;stroke:none;stroke-width:5.42455;stroke-miterlimit:4.5;stroke-dasharray:none"
       d="m 24389.827,304.10412 c -84.811,0 -179.603,21.77161 -278.737,72.37421 -191.521,97.7602 -356.911,206.28449 -729.365,764.55457 -153.57,230.1825 -300.38,476.8887 -425.635,696.6229 h -293.953 c -203.058,0 -466.599,-11.0599 -591.89,-11.0599 v 99.514 l 203.058,14.7447 c 95.049,3.6865 125.293,25.7985 129.614,92.1405 4.32,99.5151 8.635,283.8008 8.635,545.4871 v 788.7524 c 0,217.4575 -4.318,386.9986 -12.959,527.0555 -8.641,95.8295 -34.565,129.0048 -112.332,132.6905 l -241.936,22.1075 -4.321,99.5142 c 138.252,0 423.4,-11.05 617.818,-11.05 h 518.448 c 212.685,0 372.436,1.7151 534.886,5.0055 140.199,3.4135 220.876,6.5178 277.353,9.7293 21.603,-88.4579 99.367,-552.856 103.688,-637.6281 l -2.649,-0.285 c 0.187,-0.3754 4.099,-7.8606 4.099,-7.8606 0,0 -5.041,7.5199 -5.193,7.7428 l -99.945,-10.6567 c -43.203,136.3711 -112.339,309.6053 -203.068,398.0621 -95.049,103.2001 -203.052,125.319 -574.607,125.319 -358.591,0 -380.199,-18.4363 -384.519,-92.151 -8.641,-125.3148 -17.284,-353.8328 -17.284,-560.2339 v -361.1986 c 43.204,-7.3715 155.533,-7.3725 233.3,-7.3725 367.233,0 406.129,73.7184 440.693,342.7769 h 108.006 c -17.28,-221.1443 -12.964,-516.0028 8.637,-755.5745 h -108.007 c -30.244,235.887 -90.737,294.8533 -449.329,294.8533 -56.166,0 -190.096,0 -233.3,-3.6857 v -405.4264 c 0,-199.029 8.641,-361.2063 12.961,-468.0931 4.32,-44.228 17.284,-58.9728 69.129,-58.9728 h 285.149 c 384.516,0 440.678,36.8567 501.165,162.1714 43.204,95.8293 69.131,210.0928 86.412,298.5505 l 112.332,-7.3736 c -8.641,-173.2281 -4.327,-493.884 8.634,-589.7129 -90.728,14.7424 -302.43,22.1181 -557.333,22.1181 h -301.022 c 2.474,-3.9334 5.933,-9.1993 8.309,-12.9989 227.935,-364.428 442.087,-734.9785 728.339,-1059.84336 69.206,-81.73947 312.404,-351.30496 517.927,-311.47129 223.06,43.23207 -106.31,344.47389 137.529,409.91523 123.7,33.19768 323.532,-74.07924 331.847,-252.1616 7.712,-165.16212 -143.847,-307.04728 -360.584,-306.99176 z m -3338.745,555.04431 -4.313,103.19861 c 280.826,14.74295 332.665,25.7958 336.985,140.05336 4.321,92.1433 4.323,180.6052 4.323,409.1203 v 958.2858 c 0,283.801 -4.317,405.4394 -12.958,486.5266 -8.64,88.4567 -60.492,114.2475 -324.037,121.6201 l -4.313,103.2085 c 129.613,-7.3716 354.273,-11.0574 518.447,-11.0574 153.245,0 334.483,5.3178 477.738,9.1929 v 0 c -224.635,364.5252 -440.903,732.2577 -726.062,1055.8818 -69.205,81.7404 -312.404,351.3163 -517.927,311.4834 -223.061,-43.2326 106.308,-344.4758 -137.533,-409.9156 -123.698,-33.1984 -323.527,74.0691 -331.843,252.1491 -10.729,229.7903 286.845,414.5384 639.318,234.6203 191.522,-97.7623 356.914,-206.2739 729.368,-764.5445 148.071,-221.9383 292.714,-463.1666 415.631,-677.81 v -103.2085 c -250.583,-11.0563 -306.749,-29.4789 -315.39,-125.3068 -4.32,-114.2586 -12.959,-243.2611 -12.959,-493.8896 v -965.6675 c 0,-232.201 8.639,-350.1403 12.959,-416.4835 8.641,-84.7716 56.168,-106.88675 315.39,-114.25876 V 859.14843 c -125.001,0 -316.003,8.66808 -517.143,10.69248 -211.465,0.0746 -435.013,-7.06063 -545.681,-10.69248 z" /></g></svg>
