<?xml version="1.0" encoding="UTF-8" standalone="no"?>
<svg
   width="20"
   height="20"
   viewBox="0 0 20 20"
   fill="none"
   version="1.1"
   id="svg1"
   sodipodi:docname="icon-date2.svg"
   inkscape:export-filename="icon-date.svg"
   inkscape:export-xdpi="96"
   inkscape:export-ydpi="96"
   xmlns:inkscape="http://www.inkscape.org/namespaces/inkscape"
   xmlns:sodipodi="http://sodipodi.sourceforge.net/DTD/sodipodi-0.dtd"
   xmlns="http://www.w3.org/2000/svg"
   xmlns:svg="http://www.w3.org/2000/svg">
  <defs
     id="defs1" />
  <sodipodi:namedview
     id="namedview1"
     pagecolor="#ffffff"
     bordercolor="#000000"
     borderopacity="0.25"
     inkscape:showpageshadow="2"
     inkscape:pageopacity="0.0"
     inkscape:pagecheckerboard="0"
     inkscape:deskcolor="#d1d1d1" />
  <path
     d="M 2.5,4.99935 V 16.666 c 0,0.442 0.17559,0.866 0.48816,1.1785 0.31256,0.3126 0.73648,0.4882 1.17851,0.4882 H 15.8333 c 0.4421,0 0.866,-0.1756 1.1785,-0.4882 C 17.3244,17.532 17.5,17.108 17.5,16.666 V 4.99935 C 17.5,4.55732 17.3244,4.1334 17.0118,3.82084 16.6993,3.50828 16.2754,3.33268 15.8333,3.33268 H 14.1667 V 1.66602 H 12.5 v 1.66666 h -5 V 1.66602 H 5.83333 V 3.33268 H 4.16667 c -0.44203,0 -0.86595,0.1756 -1.17851,0.48816 C 2.67559,4.1334 2.5,4.55732 2.5,4.99935 Z M 15.8333,16.666 H 4.16667 V 6.66602 H 15.8333 Z"
     fill="#D7AF9F"
     id="path1"
     style="fill:#7d9a9b;fill-opacity:1" />
</svg>
