<?xml version="1.0" encoding="UTF-8" standalone="no"?>
<svg
   width="20"
   height="20"
   viewBox="0 0 20 20"
   fill="none"
   version="1.1"
   id="svg1"
   sodipodi:docname="icon-bride2.svg"
   xmlns:inkscape="http://www.inkscape.org/namespaces/inkscape"
   xmlns:sodipodi="http://sodipodi.sourceforge.net/DTD/sodipodi-0.dtd"
   xmlns="http://www.w3.org/2000/svg"
   xmlns:svg="http://www.w3.org/2000/svg">
  <defs
     id="defs1" />
  <sodipodi:namedview
     id="namedview1"
     pagecolor="#ffffff"
     bordercolor="#000000"
     borderopacity="0.25"
     inkscape:showpageshadow="2"
     inkscape:pageopacity="0.0"
     inkscape:pagecheckerboard="0"
     inkscape:deskcolor="#d1d1d1" />
  <path
     d="M 10.0004,3.82958 C 9.09239,2.99467 7.9039,2.53129 6.67039,2.53125 6.01751,2.53193 5.3712,2.66172 4.76867,2.91314 4.16614,3.16456 3.61928,3.53266 3.15956,3.99625 1.19872,5.96542 1.19956,9.04542 3.16122,11.0063 l 6.11,6.11 c 0.14167,0.2491 0.415,0.4099 0.72918,0.4099 0.129,-0.0012 0.2559,-0.0327 0.3705,-0.0919 0.1146,-0.0592 0.2138,-0.1444 0.2895,-0.2489 l 6.1792,-6.1791 C 18.8012,9.04458 18.8012,5.96542 16.8379,3.99292 16.3784,3.53018 15.832,3.16283 15.23,2.91199 14.6281,2.66114 13.9825,2.53175 13.3304,2.53125 c -1.2335,2e-4 -2.4219,0.46356 -3.33,1.29833 z m 5.6592,1.34167 c 1.3025,1.30917 1.3033,3.35417 0.0016,4.65667 L 10.0004,15.4888 4.33956,9.82792 C 3.03789,8.52542 3.03872,6.48042 4.33789,5.17458 c 0.63333,-0.63 1.46167,-0.97666 2.3325,-0.97666 0.87083,0 1.69583,0.34666 2.32417,0.975 l 0.41666,0.41666 c 0.07733,0.07746 0.16916,0.13891 0.27026,0.18083 0.1011,0.04193 0.20947,0.06351 0.31892,0.06351 0.1094,0 0.2178,-0.02158 0.3189,-0.06351 0.1011,-0.04192 0.1929,-0.10337 0.2703,-0.18083 l 0.4166,-0.41666 c 1.26,-1.2575 3.395,-1.25417 4.6534,-0.00167 z"
     fill="#D7AF9F"
     id="path1"
     style="fill:#7d9a9b;fill-opacity:1" />
</svg>
