<?xml version="1.0" encoding="UTF-8" standalone="no"?>
<svg
   width="20"
   height="20"
   viewBox="0 0 20 20"
   fill="none"
   version="1.1"
   id="svg1"
   sodipodi:docname="icon-gift-active.svg"
   inkscape:version="1.3 (0e150ed, 2023-07-21)"
   xmlns:inkscape="http://www.inkscape.org/namespaces/inkscape"
   xmlns:sodipodi="http://sodipodi.sourceforge.net/DTD/sodipodi-0.dtd"
   xmlns="http://www.w3.org/2000/svg"
   xmlns:svg="http://www.w3.org/2000/svg">
  <sodipodi:namedview
     id="namedview1"
     pagecolor="#ffffff"
     bordercolor="#000000"
     borderopacity="0.25"
     inkscape:showpageshadow="2"
     inkscape:pageopacity="0.0"
     inkscape:pagecheckerboard="0"
     inkscape:deskcolor="#d1d1d1"
     inkscape:zoom="11.8"
     inkscape:cx="9.9576271"
     inkscape:cy="10"
     inkscape:window-width="1312"
     inkscape:window-height="449"
     inkscape:window-x="0"
     inkscape:window-y="38"
     inkscape:window-maximized="0"
     inkscape:current-layer="svg1" />
  <defs
     id="defs1" />
  <path
     d="m 17.856999,5.5476992 h -1.466641 c 0.419041,-0.502848 0.680941,-1.1314081 0.680941,-1.8333001 0,-1.5923523 -1.288548,-2.8809 -2.8809,-2.8809 -1.759969,0 -3.310416,0.9323639 -4.1904,2.3151961 C 9.120016,1.765863 7.569567,0.833499 5.809598,0.833499 c -1.592351,0 -2.880898,1.2885479 -2.880898,2.8809002 0,0.7018919 0.261899,1.3304521 0.68094,1.8333001 H 2.142999 C 1.420155,5.5476993 0.8335,6.1343552 0.8335,6.8572 v 2.618999 c 0,0.628561 0.450467,1.131408 1.0476,1.257121 v 7.123681 c 0,0.722844 0.586655,1.3095 1.309499,1.3095 h 13.6188 c 0.722844,0 1.309501,-0.586656 1.309501,-1.3095 V 10.73332 c 0.597131,-0.125717 1.0476,-0.62856 1.0476,-1.257121 v -2.619 c 0,-0.7228439 -0.586657,-1.3094998 -1.309501,-1.3094998 z M 17.595099,9.2143 H 10.785698 V 7.1191 h 6.809401 z m -3.4047,-6.809401 c 0.722844,0 1.309499,0.586656 1.309499,1.3095001 0,0.722844 -0.586655,1.3095 -1.309499,1.3095 H 10.879983 C 11.236167,3.5258313 12.58757,2.404899 14.190399,2.404899 Z m -8.380801,0 c 1.602829,0 2.954233,1.1209323 3.310418,2.6190001 H 5.809598 c -0.722842,0 -1.309498,-0.586656 -1.309498,-1.3095 0,-0.7228441 0.586656,-1.3095001 1.309498,-1.3095001 z M 2.404899,7.1191 h 6.8094 v 2.0952 h -6.8094 z M 3.4525,10.7857 h 5.761799 v 6.8094 H 3.4525 Z m 13.094999,6.8094 h -5.761801 v -6.8094 h 5.761801 z"
     fill="#000000"
     id="path1-0"
     style="fill:#ffffff;fill-opacity:1;stroke-width:1.0476" />
</svg>
