<?xml version="1.0" encoding="UTF-8" standalone="no"?>
<svg
   width="20"
   height="20"
   viewBox="0 0 20 20"
   fill="none"
   version="1.1"
   id="svg1"
   xmlns="http://www.w3.org/2000/svg"
   xmlns:svg="http://www.w3.org/2000/svg">
  <defs
     id="defs1" />
  <path
     d="m 17.856999,5.5476992 h -1.466641 c 0.419041,-0.502848 0.680941,-1.1314081 0.680941,-1.8333001 0,-1.5923523 -1.288548,-2.88090005 -2.8809,-2.88090005 -1.759969,0 -3.310416,0.93236395 -4.1903998,2.31519615 C 9.1200162,1.765863 7.5695672,0.83349905 5.8095984,0.83349905 c -1.5923513,0 -2.8808981,1.28854785 -2.8808981,2.88090015 0,0.7018919 0.2618989,1.3304521 0.6809396,1.8333001 H 2.142999 c -0.7228443,0 -1.30949915,0.5866559 -1.30949915,1.3095002 V 9.476199 c 0,0.628561 0.45046695,1.131408 1.04760015,1.257121 v 7.123681 c 0,0.722844 0.5866549,1.3095 1.3094991,1.3095 H 16.809399 c 0.722844,0 1.309501,-0.586656 1.309501,-1.3095 V 10.73332 c 0.597131,-0.125717 1.0476,-0.62856 1.0476,-1.2571211 V 6.8571994 c 0,-0.7228443 -0.586657,-1.3095002 -1.309501,-1.3095002 z m -0.2619,3.6666007 H 10.785698 V 7.1190998 h 6.809401 z m -3.4047,-6.8094009 c 0.722844,0 1.309499,0.586656 1.309499,1.3095001 0,0.722844 -0.586655,1.3095 -1.309499,1.3095 H 10.879983 C 11.236167,3.5258313 12.58757,2.404899 14.190399,2.404899 Z m -8.3808007,0 c 1.6028288,0 2.9542328,1.1209323 3.3104178,2.6190001 H 5.8095983 c -0.7228423,0 -1.3094985,-0.586656 -1.3094985,-1.3095 0,-0.7228441 0.5866562,-1.3095001 1.3094985,-1.3095001 z M 2.4048993,7.1190998 H 9.2142991 V 9.2142999 H 2.4048993 Z M 3.4524995,10.7857 h 5.7617996 v 6.8094 H 3.4524995 Z m 13.0949995,6.8094 h -5.761801 v -6.8094 h 5.761801 z"
     fill="#000000"
     id="path1-0"
     style="fill:#7d9a9b;fill-opacity:1;stroke-width:1.0476" />
</svg>
