<?xml version="1.0" encoding="UTF-8" standalone="no"?>
<svg
   width="20"
   height="20"
   viewBox="0 0 20 20"
   fill="none"
   version="1.1"
   id="svg2"
   sodipodi:docname="icon-location.svg"
   inkscape:version="1.3 (0e150ed, 2023-07-21)"
   xmlns:inkscape="http://www.inkscape.org/namespaces/inkscape"
   xmlns:sodipodi="http://sodipodi.sourceforge.net/DTD/sodipodi-0.dtd"
   xmlns="http://www.w3.org/2000/svg"
   xmlns:svg="http://www.w3.org/2000/svg">
  <defs
     id="defs2" />
  <sodipodi:namedview
     id="namedview2"
     pagecolor="#ffffff"
     bordercolor="#000000"
     borderopacity="0.25"
     inkscape:showpageshadow="2"
     inkscape:pageopacity="0.0"
     inkscape:pagecheckerboard="0"
     inkscape:deskcolor="#d1d1d1"
     inkscape:zoom="11.8"
     inkscape:cx="9.9576271"
     inkscape:cy="10"
     inkscape:window-width="1312"
     inkscape:window-height="449"
     inkscape:window-x="0"
     inkscape:window-y="38"
     inkscape:window-maximized="0"
     inkscape:current-layer="svg2" />
  <path
     d="M9.99935 11.6667C11.8377 11.6667 13.3327 10.1717 13.3327 8.33333C13.3327 6.495 11.8377 5 9.99935 5C8.16102 5 6.66602 6.495 6.66602 8.33333C6.66602 10.1717 8.16102 11.6667 9.99935 11.6667ZM9.99935 6.66667C10.9185 6.66667 11.666 7.41417 11.666 8.33333C11.666 9.2525 10.9185 10 9.99935 10C9.08018 10 8.33268 9.2525 8.33268 8.33333C8.33268 7.41417 9.08018 6.66667 9.99935 6.66667Z"
     fill="#D7AF9F"
     id="path1"
     style="fill:#7d9a9b;fill-opacity:1" />
  <path
     d="M9.51739 18.1777C9.65843 18.2784 9.82741 18.3325 10.0007 18.3325C10.174 18.3325 10.343 18.2784 10.4841 18.1777C10.7374 17.9985 16.6916 13.6993 16.6674 8.33268C16.6674 4.65685 13.6766 1.66602 10.0007 1.66602C6.32489 1.66602 3.33406 4.65685 3.33406 8.32852C3.30989 13.6993 9.26406 17.9985 9.51739 18.1777ZM10.0007 3.33268C12.7582 3.33268 15.0007 5.57518 15.0007 8.33685C15.0182 12.0352 11.3441 15.356 10.0007 16.4452C8.65822 15.3552 4.98322 12.0335 5.00072 8.33268C5.00072 5.57518 7.24322 3.33268 10.0007 3.33268Z"
     fill="#D7AF9F"
     id="path2"
     style="fill:#7d9a9b;fill-opacity:1" />
</svg>
