<?xml version="1.0" encoding="UTF-8" standalone="no"?>
<svg
   width="29"
   height="28"
   viewBox="0 0 29 28"
   fill="none"
   version="1.1"
   id="svg1"
   sodipodi:docname="icon-sound-off.svg"
   inkscape:version="1.3 (0e150ed, 2023-07-21)"
   xmlns:inkscape="http://www.inkscape.org/namespaces/inkscape"
   xmlns:sodipodi="http://sodipodi.sourceforge.net/DTD/sodipodi-0.dtd"
   xmlns="http://www.w3.org/2000/svg"
   xmlns:svg="http://www.w3.org/2000/svg">
  <defs
     id="defs1" />
  <sodipodi:namedview
     id="namedview1"
     pagecolor="#ffffff"
     bordercolor="#000000"
     borderopacity="0.25"
     inkscape:showpageshadow="2"
     inkscape:pageopacity="0.0"
     inkscape:pagecheckerboard="0"
     inkscape:deskcolor="#d1d1d1"
     inkscape:zoom="8.4285714"
     inkscape:cx="14.533898"
     inkscape:cy="14"
     inkscape:window-width="1312"
     inkscape:window-height="449"
     inkscape:window-x="0"
     inkscape:window-y="38"
     inkscape:window-maximized="0"
     inkscape:current-layer="svg1" />
  <path
     d="M28.0625 10.6345L26.7406 9.31266L23.375 12.6783L20.0094 9.31266L18.6875 10.6345L22.0531 14.0002L18.6875 17.3658L20.0094 18.6877L23.375 15.322L26.7406 18.6877L28.0625 17.3658L24.6969 14.0002L28.0625 10.6345ZM15.875 27.1252C15.751 27.1246 15.6283 27.0995 15.514 27.0512C15.3997 27.003 15.2962 26.9325 15.2094 26.8439L8.06563 19.6252H1.8125C1.56386 19.6252 1.3254 19.5264 1.14959 19.3506C0.973772 19.1748 0.875 18.9363 0.875 18.6877V9.31266C0.875 9.06402 0.973772 8.82556 1.14959 8.64974C1.3254 8.47393 1.56386 8.37516 1.8125 8.37516H8.06563L15.2094 1.15641C15.385 0.981797 15.6226 0.883789 15.8703 0.883789C16.118 0.883789 16.3556 0.981797 16.5313 1.15641C16.7079 1.3295 16.809 1.56537 16.8125 1.81266V26.1877C16.8125 26.4363 16.7137 26.6748 16.5379 26.8506C16.3621 27.0264 16.1236 27.1252 15.875 27.1252ZM2.75 17.7502H8.375C8.64829 17.7484 8.91241 17.8487 9.11563 18.0314L14.9375 23.9095V4.09078L9.11563 9.96891C8.91241 10.1517 8.64829 10.2519 8.375 10.2502H2.75V17.7502Z"
     fill="#575757"
     id="path1"
     style="fill:#7d9a9b;fill-opacity:1" />
</svg>
